<svg xmlns="http://www.w3.org/2000/svg" xmlns:xlink="http://www.w3.org/1999/xlink" width="500" zoomAndPan="magnify" viewBox="0 0 375 374.999991" height="500" preserveAspectRatio="xMidYMid meet" version="1.0"><defs><g/><clipPath id="587f0739ed"><path d="M 37.5 58 L 336.75 58 L 336.75 160 L 37.5 160 Z M 37.5 58 " clip-rule="nonzero"/></clipPath><clipPath id="443f3422db"><path d="M 52 209 L 322 209 L 322 308.453125 L 52 308.453125 Z M 52 209 " clip-rule="nonzero"/></clipPath><clipPath id="f5be6e1c9b"><path d="M 122.457031 209.648438 L 184.101562 209.648438 L 184.101562 216.4375 L 122.457031 216.4375 Z M 122.457031 209.648438 " clip-rule="nonzero"/></clipPath><clipPath id="f6928c170d"><path d="M 171.09375 217.886719 L 184.101562 217.886719 L 184.101562 231.332031 L 171.09375 231.332031 Z M 171.09375 217.886719 " clip-rule="nonzero"/></clipPath><clipPath id="7f66dea8f2"><path d="M 138.71875 226.339844 L 169.691406 226.339844 L 169.691406 231.128906 L 138.71875 231.128906 Z M 138.71875 226.339844 " clip-rule="nonzero"/></clipPath><clipPath id="7bca8416a3"><path d="M 151.925781 237.457031 L 184.101562 237.457031 L 184.101562 242.246094 L 151.925781 242.246094 Z M 151.925781 237.457031 " clip-rule="nonzero"/></clipPath><clipPath id="01448a506a"><path d="M 134.34375 232.667969 L 150.699219 232.667969 L 150.699219 237.457031 L 134.34375 237.457031 Z M 134.34375 232.667969 " clip-rule="nonzero"/></clipPath><clipPath id="544127c271"><path d="M 172.292969 243.597656 L 184.101562 243.597656 L 184.101562 278.734375 L 172.292969 278.734375 Z M 172.292969 243.597656 " clip-rule="nonzero"/></clipPath><clipPath id="a419e139ee"><path d="M 143.28125 243.9375 L 171.09375 243.9375 L 171.09375 248.214844 L 143.28125 248.214844 Z M 143.28125 243.9375 " clip-rule="nonzero"/></clipPath><clipPath id="3f6cd68592"><path d="M 154.203125 256.570312 L 171.09375 256.570312 L 171.09375 258.707031 L 154.203125 258.707031 Z M 154.203125 256.570312 " clip-rule="nonzero"/></clipPath><clipPath id="a72ff05571"><path d="M 136.097656 217.886719 L 138.71875 217.886719 L 138.71875 224.609375 L 136.097656 224.609375 Z M 136.097656 217.886719 " clip-rule="nonzero"/></clipPath><clipPath id="ada861155d"><path d="M 261.527344 127.695312 L 265.914062 127.695312 L 265.914062 138.957031 L 261.527344 138.957031 Z M 261.527344 127.695312 " clip-rule="nonzero"/></clipPath><clipPath id="58cdc6bb05"><path d="M 190.492188 152.714844 L 263.71875 152.714844 L 263.71875 158.941406 L 190.492188 158.941406 Z M 190.492188 152.714844 " clip-rule="nonzero"/></clipPath><clipPath id="01cbd2594c"><path d="M 190.5 137.023438 L 203.507812 137.023438 L 203.507812 150.464844 L 190.5 150.464844 Z M 190.5 137.023438 " clip-rule="nonzero"/></clipPath><clipPath id="b9663bf59c"><path d="M 204.910156 137.21875 L 235.882812 137.21875 L 235.882812 142.007812 L 204.910156 142.007812 Z M 204.910156 137.21875 " clip-rule="nonzero"/></clipPath><clipPath id="0ae76e2261"><path d="M 190.492188 126.101562 L 222.667969 126.101562 L 222.667969 130.890625 L 190.492188 130.890625 Z M 190.492188 126.101562 " clip-rule="nonzero"/></clipPath><clipPath id="12ae1da73d"><path d="M 223.898438 130.890625 L 261.53125 130.890625 L 261.53125 135.679688 L 223.898438 135.679688 Z M 223.898438 130.890625 " clip-rule="nonzero"/></clipPath><clipPath id="780bcb675d"><path d="M 190.496094 86.351562 L 202.300781 86.351562 L 202.300781 124.75 L 190.496094 124.75 Z M 190.496094 86.351562 " clip-rule="nonzero"/></clipPath><clipPath id="db3fa6bf88"><path d="M 203.503906 120.179688 L 261.527344 120.179688 L 261.527344 124.414062 L 203.503906 124.414062 Z M 203.503906 120.179688 " clip-rule="nonzero"/></clipPath><clipPath id="11b489ef25"><path d="M 203.507812 109.640625 L 220.394531 109.640625 L 220.394531 111.78125 L 203.507812 111.78125 Z M 203.507812 109.640625 " clip-rule="nonzero"/></clipPath><clipPath id="e2e81029ff"><path d="M 235.878906 143.738281 L 238.496094 143.738281 L 238.496094 150.460938 L 235.878906 150.460938 Z M 235.878906 143.738281 " clip-rule="nonzero"/></clipPath><clipPath id="c339c76a8b"><path d="M 117.265625 117.738281 L 136.128906 117.738281 L 136.128906 135.6875 L 117.265625 135.6875 Z M 117.265625 117.738281 " clip-rule="nonzero"/></clipPath><clipPath id="1d18842f06"><path d="M 126.683594 117.738281 L 128.90625 124.59375 L 136.097656 124.59375 L 130.28125 128.832031 L 132.503906 135.6875 L 126.683594 131.449219 L 120.863281 135.6875 L 123.085938 128.832031 L 117.265625 124.59375 L 124.460938 124.59375 Z M 126.683594 117.738281 " clip-rule="nonzero"/></clipPath><clipPath id="c9c6985bc6"><path d="M 117.269531 117.738281 L 136.015625 117.738281 L 136.015625 135.679688 L 117.269531 135.679688 Z M 117.269531 117.738281 " clip-rule="nonzero"/></clipPath><clipPath id="86e016cdcd"><path d="M 126.683594 117.738281 L 128.902344 124.589844 L 136.09375 124.589844 L 130.277344 128.824219 L 132.5 135.679688 L 126.683594 131.445312 L 120.867188 135.679688 L 123.085938 128.824219 L 117.269531 124.589844 L 124.460938 124.589844 Z M 126.683594 117.738281 " clip-rule="nonzero"/></clipPath><clipPath id="1d51e7b095"><path d="M 140.070312 107.21875 L 158.933594 107.21875 L 158.933594 125.167969 L 140.070312 125.167969 Z M 140.070312 107.21875 " clip-rule="nonzero"/></clipPath><clipPath id="46dab69a39"><path d="M 149.488281 107.21875 L 151.710938 114.074219 L 158.90625 114.074219 L 153.085938 118.3125 L 155.308594 125.167969 L 149.488281 120.929688 L 143.667969 125.167969 L 145.890625 118.3125 L 140.070312 114.074219 L 147.265625 114.074219 Z M 149.488281 107.21875 " clip-rule="nonzero"/></clipPath><clipPath id="bbdd777241"><path d="M 140.074219 107.21875 L 158.820312 107.21875 L 158.820312 125.160156 L 140.074219 125.160156 Z M 140.074219 107.21875 " clip-rule="nonzero"/></clipPath><clipPath id="c3d32776eb"><path d="M 149.488281 107.21875 L 151.710938 114.070312 L 158.898438 114.070312 L 153.082031 118.308594 L 155.304688 125.160156 L 149.488281 120.925781 L 143.671875 125.160156 L 145.894531 118.308594 L 140.074219 114.070312 L 147.265625 114.070312 Z M 149.488281 107.21875 " clip-rule="nonzero"/></clipPath><clipPath id="4089f33588"><path d="M 162.878906 96.582031 L 181.738281 96.582031 L 181.738281 114.53125 L 162.878906 114.53125 Z M 162.878906 96.582031 " clip-rule="nonzero"/></clipPath><clipPath id="6f4460f2ee"><path d="M 172.292969 96.582031 L 174.515625 103.4375 L 181.710938 103.4375 L 175.890625 107.675781 L 178.113281 114.53125 L 172.292969 110.292969 L 166.472656 114.53125 L 168.695312 107.675781 L 162.878906 103.4375 L 170.070312 103.4375 Z M 172.292969 96.582031 " clip-rule="nonzero"/></clipPath><clipPath id="eba6187072"><path d="M 162.882812 96.582031 L 181.628906 96.582031 L 181.628906 114.523438 L 162.882812 114.523438 Z M 162.882812 96.582031 " clip-rule="nonzero"/></clipPath><clipPath id="4ab6604974"><path d="M 172.292969 96.582031 L 174.515625 103.433594 L 181.707031 103.433594 L 175.886719 107.671875 L 178.109375 114.523438 L 172.292969 110.289062 L 166.476562 114.523438 L 168.699219 107.671875 L 162.882812 103.433594 L 170.070312 103.433594 Z M 172.292969 96.582031 " clip-rule="nonzero"/></clipPath><clipPath id="0cd1833f0b"><path d="M 160.273438 121.335938 L 179.125 121.335938 L 179.125 139.34375 L 160.273438 139.34375 Z M 160.273438 121.335938 " clip-rule="nonzero"/></clipPath><clipPath id="cf8eb8499d"><path d="M 169.691406 121.335938 L 171.914062 128.210938 L 179.105469 128.210938 L 173.285156 132.464844 L 175.507812 139.34375 L 169.691406 135.089844 L 163.871094 139.34375 L 166.09375 132.464844 L 160.273438 128.210938 L 167.46875 128.210938 Z M 169.691406 121.335938 " clip-rule="nonzero"/></clipPath><clipPath id="0e18a1d239"><path d="M 160.277344 121.335938 L 179.023438 121.335938 L 179.023438 139.335938 L 160.277344 139.335938 Z M 160.277344 121.335938 " clip-rule="nonzero"/></clipPath><clipPath id="2b6d751fad"><path d="M 169.691406 121.335938 L 171.910156 128.210938 L 179.101562 128.210938 L 173.285156 132.460938 L 175.507812 139.335938 L 169.691406 135.085938 L 163.871094 139.335938 L 166.09375 132.460938 L 160.277344 128.210938 L 167.46875 128.210938 Z M 169.691406 121.335938 " clip-rule="nonzero"/></clipPath><clipPath id="dfff94d46a"><path d="M 138.769531 129.585938 L 157.621094 129.585938 L 157.621094 147.59375 L 138.769531 147.59375 Z M 138.769531 129.585938 " clip-rule="nonzero"/></clipPath><clipPath id="02d619648f"><path d="M 148.1875 129.585938 L 150.410156 136.460938 L 157.601562 136.460938 L 151.78125 140.714844 L 154.003906 147.59375 L 148.1875 143.339844 L 142.367188 147.59375 L 144.589844 140.714844 L 138.769531 136.460938 L 145.964844 136.460938 Z M 148.1875 129.585938 " clip-rule="nonzero"/></clipPath><clipPath id="e93296f5cf"><path d="M 138.773438 129.585938 L 157.519531 129.585938 L 157.519531 147.585938 L 138.773438 147.585938 Z M 138.773438 129.585938 " clip-rule="nonzero"/></clipPath><clipPath id="fb61bcdc22"><path d="M 148.1875 129.585938 L 150.40625 136.460938 L 157.597656 136.460938 L 151.78125 140.710938 L 154.003906 147.585938 L 148.1875 143.335938 L 142.367188 147.585938 L 144.589844 140.710938 L 138.773438 136.460938 L 145.964844 136.460938 Z M 148.1875 129.585938 " clip-rule="nonzero"/></clipPath></defs><g clip-path="url(#587f0739ed)"><path fill="#000000" d="M 94.578125 159.050781 L 113.632812 159.050781 L 113.632812 122.664062 L 187.125 87.230469 L 260.867188 122.664062 L 260.867188 159.050781 L 336.75 159.050781 L 287.277344 154.292969 L 287.277344 106.027344 L 285.136719 105.070312 L 188.789062 58.71875 L 187.125 58.011719 L 185.460938 58.71875 L 89.363281 105.070312 L 87.222656 106.027344 L 87.222656 154.292969 L 37.5 159.050781 Z M 94.578125 110.785156 L 187.125 66.316406 L 279.671875 110.785156 L 279.671875 153.585938 L 268.242188 152.402344 L 268.242188 117.929688 L 266.105469 116.972656 L 188.789062 79.628906 L 187.125 78.925781 L 185.460938 79.628906 L 108.144531 116.953125 L 106.007812 117.90625 L 106.007812 152.382812 L 94.578125 153.566406 Z M 94.578125 110.785156 " fill-opacity="1" fill-rule="nonzero"/></g><g clip-path="url(#443f3422db)"><path fill="#000000" d="M 271.089844 209.703125 L 250.871094 209.703125 C 248.027344 216.828125 244.453125 223.722656 240.402344 230.160156 C 227.789062 250.847656 209.484375 267.960938 187.105469 279.382812 C 164.746094 267.960938 146.667969 250.847656 133.808594 230.160156 C 129.757812 223.742188 126.429688 216.847656 123.335938 209.703125 L 52.960938 209.703125 L 96.738281 214.230469 C 101.269531 226.359375 106.960938 237.304688 113.632812 247.523438 C 131.957031 275.105469 157.867188 296.039062 185.710938 307.917969 L 187.144531 308.394531 L 188.578125 307.917969 C 216.421875 296.039062 242.582031 275.105469 260.660156 247.523438 C 267.558594 237.304688 273.273438 226.359375 277.550781 214.230469 L 321.332031 209.703125 Z M 254.445312 243.453125 C 237.324219 269.371094 213.054688 288.875 187.125 300.273438 C 161.195312 288.851562 136.925781 269.371094 119.804688 243.453125 C 114.089844 234.648438 109.101562 225.132812 105.300781 215.164062 L 118.140625 216.347656 C 120.757812 222.539062 123.855469 228.476562 127.429688 234.191406 C 141.226562 256.535156 161.214844 274.855469 185.484375 286.984375 L 187.144531 287.9375 L 188.808594 286.984375 C 213.078125 274.855469 233.046875 256.558594 246.863281 234.191406 C 250.4375 228.476562 253.53125 222.539062 256.152344 216.347656 L 269.242188 215.164062 C 265.148438 225.15625 260.160156 234.667969 254.445312 243.453125 Z M 254.445312 243.453125 " fill-opacity="1" fill-rule="nonzero"/></g><g fill="#000000" fill-opacity="1"><g transform="translate(85.321604, 200.920584)"><g><path d="M 7.25 -3.5 L 19.375 -3.5 L 19.375 0 L 3.75 0 L 3.75 -33.96875 L 7.25 -33.96875 Z M 7.25 -3.5 "/></g></g></g><g fill="#000000" fill-opacity="1"><g transform="translate(109.593246, 200.920584)"><g><path d="M 28.328125 -11.234375 C 28.328125 -7.578125 27.128906 -4.679688 24.734375 -2.546875 C 22.460938 -0.546875 19.445312 0.453125 15.6875 0.453125 C 11.882812 0.453125 8.851562 -0.546875 6.59375 -2.546875 C 4.195312 -4.679688 3 -7.578125 3 -11.234375 L 3 -33.96875 L 6.5 -33.96875 L 6.5 -10.734375 C 6.5 -8.171875 7.429688 -6.207031 9.296875 -4.84375 C 10.890625 -3.644531 13.019531 -3.046875 15.6875 -3.046875 C 19.84375 -3.046875 22.640625 -4.445312 24.078125 -7.25 C 24.578125 -8.207031 24.828125 -9.367188 24.828125 -10.734375 L 24.828125 -33.96875 L 28.328125 -33.96875 Z M 28.328125 -11.234375 "/></g></g></g><g fill="#000000" fill-opacity="1"><g transform="translate(144.801338, 200.920584)"><g><path d="M 24.921875 0 L 15.140625 -14.484375 L 5.34375 0 L 1.046875 0 L 12.984375 -16.9375 L 1 -33.96875 L 5.34375 -33.96875 L 15.140625 -19.484375 L 24.921875 -33.96875 L 29.21875 -33.96875 L 17.28125 -16.984375 L 29.21875 0 Z M 24.921875 0 "/></g></g></g><g fill="#000000" fill-opacity="1"><g transform="translate(178.960726, 200.920584)"><g><path d="M 7.25 -16.78125 L 15.140625 -16.78125 C 17.097656 -16.78125 18.710938 -17.445312 19.984375 -18.78125 C 21.273438 -20.144531 21.921875 -21.828125 21.921875 -23.828125 C 21.921875 -25.796875 21.304688 -27.425781 20.078125 -28.71875 C 18.847656 -29.988281 17.203125 -30.625 15.140625 -30.625 L 7.25 -30.625 Z M 25.421875 -23.734375 C 25.421875 -20.765625 24.375 -18.296875 22.28125 -16.328125 C 20.414062 -14.597656 18.164062 -13.648438 15.53125 -13.484375 L 25.96875 0 L 21.28125 0 L 11.34375 -13.4375 L 7.25 -13.4375 L 7.25 0 L 3.75 0 L 3.75 -33.96875 L 14.640625 -33.96875 C 17.671875 -33.96875 20.21875 -33.019531 22.28125 -31.125 C 24.375 -29.125 25.421875 -26.660156 25.421875 -23.734375 Z M 25.421875 -23.734375 "/></g></g></g><g fill="#000000" fill-opacity="1"><g transform="translate(210.023964, 200.920584)"><g><path d="M 7.25 0 L 3.75 0 L 3.75 -33.96875 L 7.25 -33.96875 Z M 7.25 0 "/></g></g></g><g fill="#000000" fill-opacity="1"><g transform="translate(224.907234, 200.920584)"><g><path d="M 30.125 -16.984375 C 30.125 -14.515625 29.671875 -12.25 28.765625 -10.1875 C 27.835938 -8.09375 26.59375 -6.296875 25.03125 -4.796875 C 23.457031 -3.296875 21.609375 -2.128906 19.484375 -1.296875 C 17.347656 -0.429688 15.066406 0 12.640625 0 L 3.75 0 L 3.75 -33.96875 L 12.640625 -33.96875 C 15.066406 -33.96875 17.347656 -33.550781 19.484375 -32.71875 C 21.609375 -31.851562 23.457031 -30.671875 25.03125 -29.171875 C 26.59375 -27.671875 27.835938 -25.890625 28.765625 -23.828125 C 29.671875 -21.734375 30.125 -19.453125 30.125 -16.984375 Z M 26.71875 -16.984375 C 26.71875 -20.847656 25.351562 -24.078125 22.625 -26.671875 C 19.957031 -29.203125 16.660156 -30.46875 12.734375 -30.46875 L 7.25 -30.46875 L 7.25 -3.5 L 12.734375 -3.5 C 16.660156 -3.5 19.957031 -4.765625 22.625 -7.296875 C 25.351562 -9.890625 26.71875 -13.117188 26.71875 -16.984375 Z M 26.71875 -16.984375 "/></g></g></g><g fill="#000000" fill-opacity="1"><g transform="translate(261.164032, 200.920584)"><g><path d="M 23.921875 0 L 3.75 0 L 3.75 -33.96875 L 23.921875 -33.96875 L 23.921875 -30.71875 L 7.25 -30.71875 L 7.25 -18.625 L 23.421875 -18.625 L 23.421875 -15.328125 L 7.25 -15.328125 L 7.25 -3.25 L 23.921875 -3.25 Z M 23.921875 0 "/></g></g></g><g clip-path="url(#f5be6e1c9b)"><path fill="#000000" d="M 122.457031 209.648438 L 184.105469 209.648438 L 184.105469 216.4375 L 122.457031 216.4375 Z M 122.457031 209.648438 " fill-opacity="1" fill-rule="nonzero"/></g><g clip-path="url(#f6928c170d)"><path fill="#000000" d="M 171.09375 217.886719 L 184.101562 217.886719 L 184.101562 231.351562 L 171.09375 231.351562 Z M 171.09375 217.886719 " fill-opacity="1" fill-rule="nonzero"/></g><g clip-path="url(#7f66dea8f2)"><path fill="#000000" d="M 138.71875 226.339844 L 169.679688 226.339844 L 169.679688 231.128906 L 138.71875 231.128906 Z M 138.71875 226.339844 " fill-opacity="1" fill-rule="nonzero"/></g><g clip-path="url(#7bca8416a3)"><path fill="#000000" d="M 151.925781 237.457031 L 184.105469 237.457031 L 184.105469 242.246094 L 151.925781 242.246094 Z M 151.925781 237.457031 " fill-opacity="1" fill-rule="nonzero"/></g><g clip-path="url(#01448a506a)"><path fill="#000000" d="M 134.34375 232.667969 L 150.695312 232.667969 L 150.695312 237.457031 L 134.34375 237.457031 Z M 134.34375 232.667969 " fill-opacity="1" fill-rule="nonzero"/></g><g clip-path="url(#544127c271)"><path fill="#000000" d="M 172.292969 243.597656 L 184.101562 243.597656 L 184.101562 278.742188 L 172.292969 278.742188 Z M 172.292969 243.597656 " fill-opacity="1" fill-rule="nonzero"/></g><g clip-path="url(#a419e139ee)"><path fill="#000000" d="M 143.28125 243.9375 L 171.089844 243.9375 L 171.089844 248.214844 L 143.28125 248.214844 Z M 143.28125 243.9375 " fill-opacity="1" fill-rule="nonzero"/></g><g clip-path="url(#3f6cd68592)"><path fill="#000000" d="M 154.203125 256.570312 L 171.089844 256.570312 L 171.089844 258.707031 L 154.203125 258.707031 Z M 154.203125 256.570312 " fill-opacity="1" fill-rule="nonzero"/></g><g clip-path="url(#a72ff05571)"><path fill="#000000" d="M 136.097656 217.886719 L 138.71875 217.886719 L 138.71875 224.605469 L 136.097656 224.605469 Z M 136.097656 217.886719 " fill-opacity="1" fill-rule="nonzero"/></g><g clip-path="url(#ada861155d)"><path fill="#000000" d="M 265.914062 138.957031 L 261.53125 138.957031 L 261.53125 127.699219 L 265.914062 127.699219 Z M 265.914062 138.957031 " fill-opacity="1" fill-rule="nonzero"/></g><g clip-path="url(#58cdc6bb05)"><path fill="#000000" d="M 263.71875 158.941406 L 190.496094 158.941406 L 190.496094 152.714844 L 263.71875 152.714844 Z M 263.71875 158.941406 " fill-opacity="1" fill-rule="nonzero"/></g><g clip-path="url(#01cbd2594c)"><path fill="#000000" d="M 203.507812 150.464844 L 190.5 150.464844 L 190.5 137 L 203.507812 137 Z M 203.507812 150.464844 " fill-opacity="1" fill-rule="nonzero"/></g><g clip-path="url(#b9663bf59c)"><path fill="#000000" d="M 235.882812 142.007812 L 204.917969 142.007812 L 204.917969 137.21875 L 235.882812 137.21875 Z M 235.882812 142.007812 " fill-opacity="1" fill-rule="nonzero"/></g><g clip-path="url(#0ae76e2261)"><path fill="#000000" d="M 222.667969 130.890625 L 190.488281 130.890625 L 190.488281 126.101562 L 222.667969 126.101562 Z M 222.667969 130.890625 " fill-opacity="1" fill-rule="nonzero"/></g><g clip-path="url(#12ae1da73d)"><path fill="#000000" d="M 261.53125 135.679688 L 223.90625 135.679688 L 223.90625 130.890625 L 261.53125 130.890625 Z M 261.53125 135.679688 " fill-opacity="1" fill-rule="nonzero"/></g><g clip-path="url(#780bcb675d)"><path fill="#000000" d="M 202.300781 124.75 L 190.496094 124.75 L 190.496094 86.332031 L 202.300781 86.332031 Z M 202.300781 124.75 " fill-opacity="1" fill-rule="nonzero"/></g><g clip-path="url(#db3fa6bf88)"><path fill="#000000" d="M 261.527344 124.414062 L 203.511719 124.414062 L 203.511719 120.179688 L 261.527344 120.179688 Z M 261.527344 124.414062 " fill-opacity="1" fill-rule="nonzero"/></g><g clip-path="url(#11b489ef25)"><path fill="#000000" d="M 220.394531 111.78125 L 203.507812 111.78125 L 203.507812 109.640625 L 220.394531 109.640625 Z M 220.394531 111.78125 " fill-opacity="1" fill-rule="nonzero"/></g><g clip-path="url(#e2e81029ff)"><path fill="#000000" d="M 238.496094 150.460938 L 235.878906 150.460938 L 235.878906 143.742188 L 238.496094 143.742188 Z M 238.496094 150.460938 " fill-opacity="1" fill-rule="nonzero"/></g><g clip-path="url(#c339c76a8b)"><g clip-path="url(#1d18842f06)"><path fill="#000000" d="M 117.265625 117.738281 L 136.128906 117.738281 L 136.128906 135.6875 L 117.265625 135.6875 Z M 117.265625 117.738281 " fill-opacity="1" fill-rule="nonzero"/></g></g><g clip-path="url(#c9c6985bc6)"><g clip-path="url(#86e016cdcd)"><path stroke-linecap="butt" transform="matrix(0.75, 0, 0, 0.75, 117.270532, 117.737577)" fill="none" stroke-linejoin="miter" d="M 12.550751 0.000938909 L 15.509084 9.136357 L 25.097627 9.136357 L 17.342418 14.782191 L 20.30596 23.922817 L 12.550751 18.276983 L 4.795541 23.922817 L 7.753875 14.782191 L -0.00133433 9.136357 L 9.587209 9.136357 Z M 12.550751 0.000938909 " stroke="#000000" stroke-width="8" stroke-opacity="1" stroke-miterlimit="4"/></g></g><g clip-path="url(#1d51e7b095)"><g clip-path="url(#46dab69a39)"><path fill="#000000" d="M 140.070312 107.21875 L 158.933594 107.21875 L 158.933594 125.167969 L 140.070312 125.167969 Z M 140.070312 107.21875 " fill-opacity="1" fill-rule="nonzero"/></g></g><g clip-path="url(#bbdd777241)"><g clip-path="url(#c3d32776eb)"><path stroke-linecap="butt" transform="matrix(0.75, 0, 0, 0.75, 140.076147, 107.218829)" fill="none" stroke-linejoin="miter" d="M 12.549515 -0.000105279 L 15.513057 9.135313 L 25.096391 9.135313 L 17.341182 14.786355 L 20.304724 23.921773 L 12.549515 18.275939 L 4.794305 23.921773 L 7.757847 14.786355 L -0.00257034 9.135313 L 9.585973 9.135313 Z M 12.549515 -0.000105279 " stroke="#000000" stroke-width="8" stroke-opacity="1" stroke-miterlimit="4"/></g></g><g clip-path="url(#4089f33588)"><g clip-path="url(#6f4460f2ee)"><path fill="#000000" d="M 162.878906 96.582031 L 181.738281 96.582031 L 181.738281 114.53125 L 162.878906 114.53125 Z M 162.878906 96.582031 " fill-opacity="1" fill-rule="nonzero"/></g></g><g clip-path="url(#eba6187072)"><g clip-path="url(#4ab6604974)"><path stroke-linecap="butt" transform="matrix(0.75, 0, 0, 0.75, 162.881756, 96.582248)" fill="none" stroke-linejoin="miter" d="M 12.548285 -0.000289077 L 15.511827 9.135129 L 25.10037 9.135129 L 17.339952 14.786171 L 20.303494 23.921589 L 12.548285 18.275755 L 4.793076 23.921589 L 7.756618 14.786171 L 0.00140839 9.135129 L 9.584743 9.135129 Z M 12.548285 -0.000289077 " stroke="#000000" stroke-width="8" stroke-opacity="1" stroke-miterlimit="4"/></g></g><g clip-path="url(#0cd1833f0b)"><g clip-path="url(#cf8eb8499d)"><path fill="#000000" d="M 160.273438 121.335938 L 179.125 121.335938 L 179.125 139.34375 L 160.273438 139.34375 Z M 160.273438 121.335938 " fill-opacity="1" fill-rule="nonzero"/></g></g><g clip-path="url(#0e18a1d239)"><g clip-path="url(#2b6d751fad)"><path stroke-linecap="butt" transform="matrix(0.75, 0, 0, 0.75, 160.276957, 121.334692)" fill="none" stroke-linejoin="miter" d="M 12.5526 0.00166062 L 15.510934 9.168328 L 25.099477 9.168328 L 17.344268 14.834996 L 20.30781 24.001664 L 12.5526 18.334996 L 4.792183 24.001664 L 7.755725 14.834996 L 0.000515433 9.168328 L 9.589058 9.168328 Z M 12.5526 0.00166062 " stroke="#000000" stroke-width="8" stroke-opacity="1" stroke-miterlimit="4"/></g></g><g clip-path="url(#dfff94d46a)"><g clip-path="url(#02d619648f)"><path fill="#000000" d="M 138.769531 129.585938 L 157.621094 129.585938 L 157.621094 147.59375 L 138.769531 147.59375 Z M 138.769531 129.585938 " fill-opacity="1" fill-rule="nonzero"/></g></g><g clip-path="url(#e93296f5cf)"><g clip-path="url(#fb61bcdc22)"><path stroke-linecap="butt" transform="matrix(0.75, 0, 0, 0.75, 138.773388, 129.584699)" fill="none" stroke-linejoin="miter" d="M 12.552151 0.00165175 L 15.510484 9.16832 L 25.099027 9.16832 L 17.343818 14.834987 L 20.30736 24.001655 L 12.552151 18.334987 L 4.791733 24.001655 L 7.755275 14.834987 L 0.0000657504 9.16832 L 9.588609 9.16832 Z M 12.552151 0.00165175 " stroke="#000000" stroke-width="8" stroke-opacity="1" stroke-miterlimit="4"/></g></g></svg>